<?xml version="1.0" encoding="UTF-8" standalone="no"?>
<svg
   viewBox="0 0 40.96 40.96"
   width="256"
   height="256"
   role="img"
   aria-label="cd-create-exchange icon"
   fill="currentColor"
   stroke="currentColor"
   stroke-width="0.7"
   stroke-linecap="round"
   stroke-linejoin="round"
   paint-order="stroke fill markers"
   style="color:#dc2626;fill:currentColor;stroke:currentColor;stroke-width:0.7"
   version="1.1"
   id="svg3"
   xmlns:xlink="http://www.w3.org/1999/xlink"
   xmlns="http://www.w3.org/2000/svg"
   xmlns:svg="http://www.w3.org/2000/svg">
  <defs
     id="defs3">
    <linearGradient
       id="linearGradient6">
      <stop
         style="stop-color:#000000;stop-opacity:1;"
         offset="0"
         id="stop7" />
      <stop
         style="stop-color:#000000;stop-opacity:0;"
         offset="1"
         id="stop8" />
    </linearGradient>
    <linearGradient
       id="linearGradient5">
      <stop
         style="stop-color:#00b036;stop-opacity:0;"
         offset="0"
         id="stop5" />
      <stop
         style="stop-color:#f79500;stop-opacity:1;"
         offset="1"
         id="stop6" />
    </linearGradient>
    <radialGradient
       xlink:href="#linearGradient5"
       id="radialGradient6"
       cx="12.0005"
       cy="12.0005"
       fx="12.0005"
       fy="12.0005"
       r="12.3505"
       gradientTransform="matrix(1,0,0,0.99975711,0,0.00291481)"
       gradientUnits="userSpaceOnUse" />
    <radialGradient
       xlink:href="#linearGradient6"
       id="radialGradient8"
       cx="12.0005"
       cy="12.0005"
       fx="12.0005"
       fy="12.0005"
       r="12.3505"
       gradientTransform="matrix(1,0,0,0.99975711,0,0.00291481)"
       gradientUnits="userSpaceOnUse" />
  </defs>
  <g
     id="layer1"
     style="display:inline"
     transform="translate(-0.03196964,0.12794525)">
    <g
       id="g4"
       style="color:#dc2626;display:inline;fill:currentColor;stroke:currentColor;stroke-width:0.7"
       transform="matrix(1.3285039,0,0,1.3285039,0.22905128,0.51824451)">
      <path
         d="m 14,2 a 12,12 0 0 0 0,24 v -2 a 10,10 0 1 1 10,-10 8.27,8.27 0 0 1 0,1 h 2 c 0,-0.33 0.05,-0.66 0.05,-1 A 12,12 0 0 0 14,2 Z"
         fill="currentColor"
         id="path1" />
    </g>
  </g>
  <g
     id="layer4"
     style="display:inline">
    <path
       id="path8"
       style="fill:#ffffff;fill-opacity:1;stroke:none;stroke-width:0.10864;stroke-opacity:1"
       d="m 18.804688,3.753125 a 15.52,15.52 0 0 0 -15.5200005,15.52 15.52,15.52 0 0 0 15.5200005,15.52 15.52,15.52 0 0 0 15.52,-15.52 15.52,15.52 0 0 0 -15.52,-15.52 z m -0.05187,14.5975 a 0.80000001,0.80000001 0 0 1 0.8,0.8 0.80000001,0.80000001 0 0 1 -0.8,0.8 0.80000001,0.80000001 0 0 1 -0.8,-0.8 0.80000001,0.80000001 0 0 1 0.8,-0.8 z" />
  </g>
  <g
     id="layer2"
     style="display:inline;opacity:1;mix-blend-mode:normal">
    <g
       id="g2"
       style="color:#475569;fill:currentColor;stroke:currentColor;stroke-width:0.7"
       transform="matrix(1.2914214,0,0,1.2911437,3.2259403,3.7014942)">
      <path
         id="path1-3"
         style="display:inline;fill:url(#radialGradient6);stroke:url(#radialGradient8)"
         d="M 11.995017,0.0029573 C 5.4100178,0.0129573 0.07199783,5.3101066 -2.1681536e-6,11.885107 v 0.114966 C 0.00250799,15.302817 1.368402,18.45801 3.7749082,20.720055 L 4.9598912,19.43994 C 2.905989,17.503144 1.7418296,14.804985 1.7420222,11.98192 v -7.26e-4 -2.42e-4 C 1.74255,6.3133978 6.3523297,1.7039686 12.018006,1.7039686 c 1.824,0 3.536986,0.4801462 5.024986,1.3171462 L 17.857018,1.5330929 C 16.125433,0.55785041 14.177176,0.03180198 12.190054,0.0029573 Z m 0.02299,1.9239241 C 6.4750044,1.9248814 1.9629512,6.4369204 1.9629512,11.98192 c -1.412e-4,2.761074 1.137927,5.400093 3.1460006,7.295131 l 1.1801435,-1.276 C 4.6382342,16.434129 3.703288,14.25801 3.7030397,11.98192 c 0,-4.5859996 3.7299657,-8.3148179 8.3149663,-8.3148179 1.483,0 2.874984,0.3908707 4.081984,1.0748707 L 16.935068,3.2159517 C 15.434441,2.3699048 13.7407,1.9258689 12.018006,1.9268814 Z M 20.362009,3.4049799 19.208,4.6449174 c 1.975731,1.9297803 3.089108,4.5751984 3.087925,7.3370026 0,5.666 -4.609983,10.276016 -10.275983,10.276016 -1.783,0 -3.4599028,-0.455848 -4.9219028,-1.257848 l -0.8539525,1.521906 c 1.7637963,0.968771 3.7436765,1.47644 5.7560123,1.47592 6.626,0 12.000827,-5.37302 12.000827,-12.00002 -0.0015,-3.2382635 -1.313781,-6.3380094 -3.637949,-8.5929141 z m -8.343035,0.4830988 c -4.4610008,0 -8.0918595,3.6298417 -8.0918595,8.0938413 0,2.301 0.966913,4.382179 2.514913,5.858179 l 1.172884,-1.270192 C 6.3620831,15.37268 5.6539089,13.714816 5.6551039,11.98192 5.6583961,8.4685906 8.5056447,5.6212714 12.018974,5.617892 c 1.10305,-0.0017 2.187215,0.2862334 3.144064,0.8350154 L 15.993035,4.9360836 C 14.781167,4.2492038 13.411966,3.8881301 12.018974,3.8880787 Z m 7.03803,0.9209374 -1.183048,1.2740642 c 1.576405,1.557813 2.462492,3.6825752 2.459984,5.8988397 h -9.68e-4 c 0,4.586 -3.729966,8.31506 -8.314966,8.31506 -1.383776,5.32e-4 -2.745727,-0.344917 -3.9619623,-1.004923 l -0.8520166,1.515856 c 1.4757144,0.808135 3.1314769,1.230864 4.8139789,1.229046 5.543,0 10.055054,-4.512039 10.055054,-10.055039 0,-2.8079996 -1.157056,-5.3469039 -3.016056,-7.1729039 z M 12.01607,5.8410468 c -3.3840004,-0.005 -6.141005,2.7528736 -6.141005,6.1408732 -0.00115,1.670911 0.6809326,3.269641 1.8879392,4.425098 l 1.1569132,-1.250103 0.014035,0.01404 C 8.067682,14.33716 7.5784684,13.186444 7.5790983,11.984099 7.5784352,9.5333156 9.5652866,7.5463619 12.01607,7.5468988 c 0.778921,-3.973e-4 1.543987,0.205986 2.217034,0.5980647 L 15.052937,6.6470183 C 14.128392,6.1177918 13.08137,5.8399167 12.01607,5.8410468 Z m 5.710036,0.4010495 -1.179176,1.2668032 c 1.178122,1.1906613 1.838977,2.7980135 1.839059,4.4730205 -0.0033,3.513801 -2.851278,6.361316 -6.36508,6.364028 -1.049276,0.0023 -2.0825087,-0.257526 -3.0058929,-0.75587 l -0.8479029,1.5069 c 1.182545,0.643182 2.5076558,0.979151 3.8537958,0.97709 4.464,0 8.095005,-3.630084 8.095005,-8.094084 0.0015,-2.1549956 -0.859041,-4.2210615 -2.389808,-5.7378877 z m -1.332108,1.43187 -1.161995,1.250103 c 0.785819,0.8240981 1.224125,1.9191457 1.223942,3.0578507 h 9.68e-4 c -0.0015,2.450246 -1.987693,4.436063 -4.437939,4.4372 -0.718252,0.001 -1.425832,-0.173822 -2.0609563,-0.509238 l -0.8350779,1.488021 c 0.8902072,0.478527 1.8853642,0.728368 2.8960342,0.727069 3.391083,-0.0039 6.139111,-2.751969 6.14294,-6.143052 0.0014,-1.612841 -0.633982,-3.1610227 -1.767916,-4.3079537 z M 12.016554,8.5815919 C 10.138551,8.5815558 8.6160836,10.103917 8.6159887,11.98192 h 9.679e-4 c 0,4.53344 6.8001624,4.53344 6.8001624,0 -9.5e-5,-1.878003 -1.522562,-3.400364 -3.400565,-3.4003281 z m -0.460491,0.180557 c 1.960554,-0.2818334 3.715788,1.2390631 3.715867,3.2197711 -0.0017,1.79608 -1.457843,3.251369 -3.253924,3.251962 -1.795097,-0.0022 -3.2497639,-1.456865 -3.2519888,-3.251962 5.84e-5,-1.617696 1.1888164,-2.989547 2.7900458,-3.2197711 z m 0.459281,2.0810041 c -0.615825,0 -1.115051,0.499332 -1.115051,1.11529 0,0.615958 0.499226,1.11529 1.115051,1.11529 0.615825,0 1.11505,-0.499332 1.11505,-1.11529 0,-0.615958 -0.499225,-1.11529 -1.11505,-1.11529 z" />
    </g>
  </g>
  <g
     id="layer5"
     style="display:inline">
    <g
       id="g5"
       style="color:#dc2626;display:inline;fill:#dc4226;fill-opacity:0.428814;stroke:none;stroke-width:0.7"
       transform="matrix(1.3285039,0,0,1.3285039,0.1491149,0.5982349)">
      <path
         d="m 14,20 a 6,6 0 1 1 6,-6 6,6 0 0 1 -6,6 z m 0,-10 a 4,4 0 1 0 4,4 4,4 0 0 0 -4,-4 z"
         fill="currentColor"
         id="path3"
         style="fill:#dc4226;fill-opacity:0.428814;stroke:none" />
    </g>
  </g>
  <g
     id="layer3">
    <g
       id="g3"
       style="color:#dc2626;display:none;fill:#818181;fill-opacity:1;stroke:#ffffff;stroke-width:1.20436;stroke-dasharray:none;stroke-opacity:1"
       transform="matrix(-1.3285039,0,0,1.3285039,62.348701,0.51824451)">
      <path
         d="m 17,24 h 9.17 L 23.58,26.59 25,28 30,23 25,18 23.58,19.42 26.17,22 H 17 Z"
         fill="currentColor"
         id="path2"
         style="fill:#818181;fill-opacity:1;stroke:#ffffff;stroke-width:1.20436;stroke-dasharray:none;stroke-opacity:1" />
    </g>
    <g
       id="g6"
       style="color:#dc2626;display:inline;fill:#818181;fill-opacity:1;stroke:#ffffff;stroke-width:1.20436;stroke-dasharray:none;stroke-opacity:1"
       transform="matrix(1.3285039,0,0,1.3285039,-0.09094872,0.51824451)">
      <path
         d="m 17,24 h 9.17 L 23.58,26.59 25,28 30,23 25,18 23.58,19.42 26.17,22 H 17 Z"
         fill="currentColor"
         id="path4"
         style="fill:#818181;fill-opacity:1;stroke:#ffffff;stroke-width:1.20436;stroke-dasharray:none;stroke-opacity:1" />
    </g>
  </g>
</svg>
